<?xml version="1.0" encoding="utf-8"?>
<!-- Generator: Adobe Illustrator 22.1.0, SVG Export Plug-In . SVG Version: 6.00 Build 0)  -->
<svg version="1.1" id="Layer_1" xmlns="http://www.w3.org/2000/svg" xmlns:xlink="http://www.w3.org/1999/xlink" x="0px" y="0px"
	 viewBox="0 0 94 60" style="enable-background:new 0 0 94 60;" xml:space="preserve">
<style type="text/css">
	.st0{fill:#FFFFFF;}
</style>
<path class="st0" d="M86.5,0h-79C3.4,0,0,3.4,0,7.5v45C0,56.6,3.4,60,7.5,60h79c4.1,0,7.5-3.4,7.5-7.5v-45C94,3.4,90.6,0,86.5,0z
	 M82.3,48.5l-2.6,3.1L56.8,32.5L50,38.3L46.9,41l-3.1-2.7l-6.7-5.8l-22.8,19l-2.6-3.1L34,29.8L11.7,10.5l2.6-3l32.6,28.2L79.7,7.5
	l2.6,3L59.9,29.8L82.3,48.5z"/>
</svg>
