<?xml version="1.0" encoding="utf-8"?>
<!-- Generator: Adobe Illustrator 22.1.0, SVG Export Plug-In . SVG Version: 6.00 Build 0)  -->
<svg version="1.1" id="Layer_1" xmlns="http://www.w3.org/2000/svg" xmlns:xlink="http://www.w3.org/1999/xlink" x="0px" y="0px"
	 viewBox="0 0 100 57.1" style="enable-background:new 0 0 100 57.1;" xml:space="preserve">
<style type="text/css">
	.st0{fill:#FFFFFF;}
</style>
<path class="st0" d="M48.9,56.8h6c0,0,1.8-0.2,2.7-1.2c0.9-0.9,0.8-2.6,0.8-2.6s-0.1-8,3.6-9.2c3.7-1.2,8.4,7.8,13.4,11.2
	c3.8,2.6,6.6,2,6.6,2l13.4-0.2c0,0,7-0.4,3.7-5.9c-0.3-0.5-1.9-4.1-9.9-11.5c-8.4-7.8-7.3-6.5,2.8-20c6.1-8.2,8.6-13.2,7.8-15.3
	c-0.7-2-5.3-1.5-5.3-1.5l-15,0.1c0,0-1.1-0.2-1.9,0.3c-0.8,0.5-1.3,1.6-1.3,1.6s-2.4,6.3-5.6,11.7c-6.7,11.4-9.4,12-10.5,11.3
	c-2.5-1.6-1.9-6.6-1.9-10.1c0-11,1.7-15.6-3.3-16.8c-1.6-0.4-2.8-0.7-7-0.7C42.7,0,38.2,0,35.6,1.3c-1.7,0.8-3,2.7-2.2,2.8
	c1,0.1,3.2,0.6,4.4,2.2c1.5,2.1,1.5,6.8,1.5,6.8s0.9,13-2.1,14.6c-2,1.1-4.8-1.2-10.8-11.5C23.4,11,21.1,5.1,21.1,5.1
	S20.7,4,19.9,3.5c-1-0.7-2.3-0.9-2.3-0.9L3.3,2.6c0,0-2.1,0.1-2.9,1c-0.7,0.8-0.1,2.5-0.1,2.5s11.2,26.2,23.9,39.4
	C35.7,57.6,48.9,56.8,48.9,56.8L48.9,56.8z"/>
</svg>
