<?xml version="1.0" encoding="utf-8"?>
<!-- Generator: Adobe Illustrator 22.1.0, SVG Export Plug-In . SVG Version: 6.00 Build 0)  -->
<svg version="1.1" id="Layer_1" xmlns="http://www.w3.org/2000/svg" xmlns:xlink="http://www.w3.org/1999/xlink" x="0px" y="0px"
	 viewBox="0 0 72.5 63" style="enable-background:new 0 0 72.5 63;" xml:space="preserve">
<style type="text/css">
	.st0{fill:#FFFFFF;}
</style>
<g>
	<path class="st0" d="M21.1,29.9c-1.8-2.8-2.8-6.1-2.8-9.6c0-0.7,0-1.4,0.1-2.1h-0.9c-1.9,1.1-4,1.7-6.3,1.7c-2.2,0-4.2-0.6-6-1.5
		c-0.9,0.2-2,0.8-3.1,2.1c-1.7,2.1-1.8,4.7-1.8,5.5l0,0.1L0,30.9c0,2.1,1.3,3.8,2.8,3.8h9.3C15,31.8,18.4,30.5,21.1,29.9z"/>
	<path class="st0" d="M6.5,12.9c1.3,1.1,2.9,1.7,4.7,1.7s3.4-0.6,4.7-1.7c1.6-1.3,2.6-3.3,2.6-5.6c0-4-3.3-7.3-7.3-7.3
		S3.9,3.3,3.9,7.3C3.9,9.5,4.9,11.5,6.5,12.9z"/>
	<path class="st0" d="M72.2,25.9c0-0.8-0.2-3.4-1.8-5.5c-1-1.3-2.2-1.8-3.1-2.1c-1.8,1-3.8,1.5-6,1.5c-2.3,0-4.5-0.6-6.3-1.7h-0.9
		c0.1,0.7,0.1,1.4,0.1,2.1c0,3.5-1,6.8-2.8,9.6c2.7,0.6,6,1.9,9,4.8h9.3c1.5,0,2.8-1.7,2.8-3.8L72.2,25.9z"/>
	<path class="st0" d="M56.6,12.9c1.3,1.1,2.9,1.7,4.7,1.7c1.8,0,3.4-0.6,4.7-1.7c1.6-1.3,2.6-3.3,2.6-5.6c0-4-3.3-7.3-7.3-7.3
		S54,3.3,54,7.3C54,9.5,55.1,11.5,56.6,12.9z"/>
	<path class="st0" d="M60.7,48.5c0-1.2-0.1-5-2.7-8.5c-0.3-0.4-0.6-0.8-1-1.2c-0.5-0.6-1.1-1.1-1.7-1.5c-3.4-2.5-7.1-2.7-8.3-2.7H47
		c-0.2,0.1-0.4,0.3-0.5,0.4c-0.7,0.5-1.5,0.9-2.3,1.3c-2.4,1.2-5,1.8-7.9,1.8s-5.5-0.7-7.9-1.8c-0.8-0.4-1.6-0.8-2.3-1.3
		c-0.2-0.1-0.4-0.3-0.5-0.4h0c-1.2,0-5,0.1-8.4,2.7c-0.6,0.4-1.1,0.9-1.7,1.5c-0.4,0.4-0.7,0.8-1,1.2c-2.4,3.2-2.7,6.6-2.7,8l0,0.2
		l-0.6,7.6c0.1,4,3.3,7.3,7.4,7.3H54c4,0,7.3-3.3,7.4-7.3l-0.6-7.1V48.5z"/>
	<path class="st0" d="M24.3,24.5C24.3,24.5,24.3,24.5,24.3,24.5c0.6,1.8,1.7,3.4,3,4.7c0.1,0.1,0.1,0.1,0.2,0.2
		c0.8,0.7,1.6,1.4,2.6,1.9c0.5,0.3,1,0.5,1.6,0.7c1.4,0.6,3,0.9,4.6,0.9s3.2-0.3,4.6-0.9c0.5-0.2,1.1-0.5,1.6-0.7
		c0.9-0.5,1.8-1.2,2.6-1.9h0.2c0-0.1,0-0.1,0-0.2c1.3-1.3,2.3-2.9,3-4.7v0c0.2-0.7,0.4-1.4,0.6-2.1c0.1-0.7,0.2-1.4,0.2-2.2
		c0-0.8-0.1-1.7-0.2-2.5c-0.2-1-0.5-1.9-0.9-2.7c-2-4.4-6.4-7.5-11.6-7.5s-9.6,3.1-11.6,7.5c-0.4,0.9-0.7,1.8-0.9,2.7
		c-0.2,0.8-0.2,1.6-0.2,2.5c0,0.7,0.1,1.5,0.2,2.2C23.9,23.1,24.1,23.8,24.3,24.5z"/>
</g>
</svg>
